{
	"asset":{
		"version":"2.0",
		"generator":"Blender Foundation Blender (stable FBX IO) 2.80 (sub 75)"
	},
	"scenes":[{
		"nodes":[0]
	}],
	"nodes":[{
		"name":"Plateau_winter_004",
		"mesh":0
	}],
	"meshes":[{
		"name":"Plateau_winter_004",
		"primitives":[{
			"attributes":{
				"POSITION":1,
				"NORMAL":2,
				"TEXCOORD_0":3
			},
			"indices":0
		}]
	}],
	"accessors":[{
		"bufferView":0,
		"type":"SCALAR",
		"componentType":5123,
		"count":2568,
		"byteOffset":0,
		"min":[0],
		"max":[2071]
	},
	{
		"bufferView":1,
		"type":"VEC3",
		"componentType":5126,
		"count":2072,
		"byteOffset":0,
		"min":[-19.515615463256837,
		-7.30935767023766e-7,
		-16.72186279296875],
		"max":[19.515615463256837,
		17.463600158691408,
		16.72186279296875]
	},
	{
		"bufferView":1,
		"type":"VEC3",
		"componentType":5126,
		"count":2072,
		"byteOffset":12,
		"min":[-0.9958584904670715,
		-0.5996925234794617,
		-0.9997571706771851],
		"max":[0.9974623322486877,
		1.0,
		0.9994032382965088]
	},
	{
		"bufferView":1,
		"type":"VEC2",
		"componentType":5126,
		"count":2072,
		"byteOffset":24,
		"min":[0.04714581370353699,
		0.25744742155075076],
		"max":[0.23249933123588563,
		0.443733274936676]
	}],
	"bufferViews":[{
		"buffer":0,
		"byteOffset":0,
		"byteLength":5136,
		"target":34963
	},
	{
		"buffer":0,
		"byteOffset":5136,
		"byteLength":66304,
		"target":34962,
		"byteStride":32
	}],
	"buffers":[{
		"uri":"data:application/octet-stream;base64,",
		"byteLength":71440
	}]
}