{
	"asset":{
		"version":"2.0",
		"generator":"Maxon Cinema 4D 2023.2.2 (#200000219)"
	},
	"scenes":[{
		"nodes":[0]
	}],
	"nodes":[{
		"name":"House 34",
		"mesh":0
	}],
	"meshes":[{
		"name":"House 34",
		"primitives":[{
			"attributes":{
				"POSITION":1
			},
			"indices":0,
			"material":0
		}]
	}],
	"accessors":[{
		"bufferView":0,
		"type":"SCALAR",
		"componentType":5123,
		"count":1092,
		"byteOffset":0,
		"min":[0],
		"max":[175]
	},
	{
		"bufferView":1,
		"type":"VEC3",
		"componentType":5126,
		"count":176,
		"byteOffset":0,
		"min":[-5.192000389099121,
		0.0,
		-5.9079999923706059],
		"max":[5.192000389099121,
		7.772287845611572,
		5.9079999923706059]
	}],
	"bufferViews":[{
		"buffer":0,
		"byteOffset":0,
		"byteLength":2184,
		"target":34963
	},
	{
		"buffer":0,
		"byteOffset":2184,
		"byteLength":2112,
		"target":34962
	}],
	"buffers":[{
		"uri":"data:application/octet-stream;base64,",
		"byteLength":4296
	}],
	"materials":[{
		"pbrMetallicRoughness":{
			"baseColorFactor":[0.8823529481887817,
			0.8823529481887817,
			0.8823529481887817,
			1.0],
			"metallicFactor":0.0,
			"roughnessFactor":1.0
		},
		"emissiveFactor":[0.0,
		0.0,
		0.0],
		"alphaMode":"OPAQUE",
		"doubleSided":false,
		"name":"White"
	}]
}