{
	"asset":{
		"version":"2.0",
		"generator":"Maxon Cinema 4D 2023.2.2 (#200000219)"
	},
	"scenes":[{
		"nodes":[0]
	}],
	"nodes":[{
		"name":"House 23",
		"mesh":0
	}],
	"meshes":[{
		"name":"House 23",
		"primitives":[{
			"attributes":{
				"POSITION":1,
				"NORMAL":2,
				"TEXCOORD_0":3
			},
			"indices":0,
			"material":0
		}]
	}],
	"accessors":[{
		"bufferView":0,
		"type":"SCALAR",
		"componentType":5123,
		"count":636,
		"byteOffset":0,
		"min":[0],
		"max":[323]
	},
	{
		"bufferView":1,
		"type":"VEC3",
		"componentType":5126,
		"count":324,
		"byteOffset":0,
		"min":[-3.4184999465942385,
		0.0,
		-4.866000175476074],
		"max":[3.4184999465942385,
		6.214793682098389,
		4.866000175476074]
	},
	{
		"bufferView":1,
		"type":"VEC3",
		"componentType":5126,
		"count":324,
		"byteOffset":12,
		"min":[-1.0,
		-1.0,
		-1.0],
		"max":[1.0,
		1.0,
		1.0]
	},
	{
		"bufferView":1,
		"type":"VEC2",
		"componentType":5126,
		"count":324,
		"byteOffset":24,
		"min":[0.0,
		0.0],
		"max":[1.0,
		1.0]
	}],
	"bufferViews":[{
		"buffer":0,
		"byteOffset":0,
		"byteLength":1272,
		"target":34963
	},
	{
		"buffer":0,
		"byteOffset":1272,
		"byteLength":10368,
		"target":34962,
		"byteStride":32
	}],
	"buffers":[{
		"uri":"data:application/octet-stream;base64,",
		"byteLength":11640
	}],
	"materials":[{
		"pbrMetallicRoughness":{
			"baseColorFactor":[0.8823529481887817,
			0.8823529481887817,
			0.8823529481887817,
			1.0],
			"metallicFactor":0.0,
			"roughnessFactor":1.0
		},
		"emissiveFactor":[0.0,
		0.0,
		0.0],
		"alphaMode":"OPAQUE",
		"doubleSided":false,
		"name":"White"
	}]
}