{
	"accessors":[{
		"bufferView":0,
		"byteOffset":0,
		"type":"SCALAR",
		"componentType":5123,
		"count":42099,
		"min":[0],
		"max":[15791]
	},
	{
		"bufferView":1,
		"byteOffset":0,
		"type":"VEC3",
		"componentType":5126,
		"count":15792,
		"min":[-9.452675819396973,
		-0.1782124936580658,
		-12.523370742797852],
		"max":[8.502496719360352,
		2.499481201171875,
		10.620713233947754]
	},
	{
		"bufferView":1,
		"byteOffset":12,
		"type":"VEC3",
		"componentType":5126,
		"count":15792,
		"min":[-0.9999995231628418,
		-1.0,
		-0.999972939491272],
		"max":[0.9998239278793335,
		1.0,
		0.9999380707740784]
	},
	{
		"bufferView":1,
		"byteOffset":24,
		"type":"VEC2",
		"componentType":5126,
		"count":15792,
		"min":[0.000012215594324516133,
		0.039377450942993167],
		"max":[0.9998825788497925,
		0.9999760389328003]
	}],
	"asset":{
		"version":"2.0",
		"generator":"Maxon Cinema 4D 2023.2.2 (#200000219)"
	},
	"scenes":[{
		"nodes":[0]
	}],
	"nodes":[{
		"name":"Boole.1_remesh",
		"mesh":0
	}],
	"meshes":[{
		"name":"Boole.1_remesh",
		"primitives":[{
			"attributes":{
				"POSITION":1,
				"NORMAL":2,
				"TEXCOORD_0":3
			},
			"indices":0
		}]
	}],
	"bufferViews":[{
		"buffer":0,
		"byteOffset":0,
		"byteLength":84198,
		"target":34963
	},
	{
		"buffer":0,
		"byteOffset":84200,
		"byteLength":505344,
		"target":34962,
		"byteStride":32
	}],
	"buffers":[{
		"uri":"data:application/octet-stream;base64,",
		"byteLength":589544
	}]
}