{
	"asset":{
		"version":"2.0",
		"generator":"Maxon Cinema 4D 2023.2.2 (#200000219)"
	},
	"scenes":[{
		"nodes":[0]
	}],
	"nodes":[{
		"name":"Extrude_remesh",
		"mesh":0,
		"translation":[-0.7711953520774841,
		-17.099628448486329,
		-3.208867073059082],
		"rotation":[0.0,
		0.0,
		0.0,
		-1.0],
		"scale":[1.0,
		1.0,
		1.0]
	}],
	"meshes":[{
		"name":"Extrude_remesh",
		"primitives":[{
			"attributes":{
				"POSITION":1,
				"NORMAL":2,
				"TEXCOORD_0":3
			},
			"indices":0
		}]
	}],
	"accessors":[{
		"bufferView":0,
		"type":"SCALAR",
		"componentType":5123,
		"count":54216,
		"byteOffset":0,
		"min":[0],
		"max":[9234]
	},
	{
		"bufferView":1,
		"type":"VEC3",
		"componentType":5126,
		"count":9235,
		"byteOffset":0,
		"min":[-137.50416564941407,
		0.0,
		-61.76132583618164],
		"max":[137.11109924316407,
		15.000001907348633,
		61.57524108886719]
	},
	{
		"bufferView":1,
		"type":"VEC3",
		"componentType":5126,
		"count":9235,
		"byteOffset":12,
		"min":[-0.999975323677063,
		-1.0,
		-0.9999953508377075],
		"max":[0.9996891617774963,
		1.0,
		0.9999977350234985]
	},
	{
		"bufferView":1,
		"type":"VEC2",
		"componentType":5126,
		"count":9235,
		"byteOffset":24,
		"min":[-0.16987666487693788,
		-0.052915796637535098],
		"max":[1.1862339973449708,
		1.5246191024780274]
	}],
	"bufferViews":[{
		"buffer":0,
		"byteOffset":0,
		"byteLength":108432,
		"target":34963
	},
	{
		"buffer":0,
		"byteOffset":108432,
		"byteLength":295520,
		"target":34962,
		"byteStride":32
	}],
	"buffers":[{
		"uri":"data:application/octet-stream;base64,",
		"byteLength":403952
	}]
}