{
	"asset":{
		"version":"2.0",
		"generator":"Maxon Cinema 4D 2023.2.2 (#200000219)"
	},
	"scenes":[{
		"nodes":[0]
	}],
	"nodes":[{
		"name":"Extrude.1",
		"mesh":0
	}],
	"meshes":[{
		"name":"Extrude.1",
		"primitives":[{
			"attributes":{
				"POSITION":1,
				"NORMAL":2,
				"TEXCOORD_0":3
			},
			"indices":0
		}]
	}],
	"accessors":[{
		"bufferView":0,
		"type":"SCALAR",
		"componentType":5123,
		"count":36612,
		"byteOffset":0,
		"min":[0],
		"max":[9403]
	},
	{
		"bufferView":1,
		"type":"VEC3",
		"componentType":5126,
		"count":9404,
		"byteOffset":0,
		"min":[-152.7463836669922,
		-24.85730743408203,
		-74.91007232666016],
		"max":[152.64308166503907,
		-9.857306480407715,
		74.91837310791016]
	},
	{
		"bufferView":1,
		"type":"VEC3",
		"componentType":5126,
		"count":9404,
		"byteOffset":12,
		"min":[-0.984700083732605,
		-1.0,
		-0.9831075668334961],
		"max":[0.9969952702522278,
		1.0,
		0.9945741295814514]
	},
	{
		"bufferView":1,
		"type":"VEC2",
		"componentType":5126,
		"count":9404,
		"byteOffset":24,
		"min":[-0.00026194320525974035,
		-0.00026195996906608343],
		"max":[1.000265121459961,
		0.9946666955947876]
	}],
	"bufferViews":[{
		"buffer":0,
		"byteOffset":0,
		"byteLength":73224,
		"target":34963
	},
	{
		"buffer":0,
		"byteOffset":73224,
		"byteLength":300928,
		"target":34962,
		"byteStride":32
	}],
	"buffers":[{
		"uri":"data:application/octet-stream;base64,",
		"byteLength":374152
	}]
}