{
	"asset":{
		"version":"2.0",
		"generator":"Maxon Cinema 4D 2023.2.2 (#200000219)"
	},
	"scenes":[{
		"nodes":[0]
	}],
	"nodes":[{
		"name":"Mountain_winter_009",
		"mesh":0,
		"translation":[0.9891831874847412,
		5.4728474617004398,
		0.019470376893877984],
		"rotation":[0.0,
		0.0,
		0.0,
		-1.0],
		"scale":[1.0,
		1.0,
		1.0]
	}],
	"meshes":[{
		"name":"Mountain_winter_009",
		"primitives":[{
			"attributes":{
				"POSITION":1,
				"NORMAL":2,
				"TEXCOORD_0":3
			},
			"indices":0
		}]
	}],
	"accessors":[{
		"bufferView":0,
		"type":"SCALAR",
		"componentType":5123,
		"count":5352,
		"byteOffset":0,
		"min":[0],
		"max":[4895]
	},
	{
		"bufferView":1,
		"type":"VEC3",
		"componentType":5126,
		"count":4896,
		"byteOffset":0,
		"min":[-17.620277404785158,
		-5.472847938537598,
		-11.54692554473877],
		"max":[12.451337814331055,
		14.739723205566407,
		11.266420364379883]
	},
	{
		"bufferView":1,
		"type":"VEC3",
		"componentType":5126,
		"count":4896,
		"byteOffset":12,
		"min":[-1.0,
		-0.819270670413971,
		-1.0],
		"max":[0.9943187832832336,
		1.0,
		1.0]
	},
	{
		"bufferView":1,
		"type":"VEC2",
		"componentType":5126,
		"count":4896,
		"byteOffset":24,
		"min":[-0.48362067341804507,
		0.025984466075897218],
		"max":[1.7821863889694214,
		0.9748977422714233]
	}],
	"bufferViews":[{
		"buffer":0,
		"byteOffset":0,
		"byteLength":10704,
		"target":34963
	},
	{
		"buffer":0,
		"byteOffset":10704,
		"byteLength":156672,
		"target":34962,
		"byteStride":32
	}],
	"buffers":[{
		"uri":"data:application/octet-stream;base64,",
		"byteLength":167376
	}]
}