{
	"asset":{
		"version":"2.0",
		"generator":"Maxon Cinema 4D 2023.2.2 (#200000219)"
	},
	"scenes":[{
		"nodes":[0]
	}],
	"nodes":[{
		"name":"Hill_winter_005.1",
		"mesh":0
	}],
	"meshes":[{
		"name":"Hill_winter_005.1",
		"primitives":[{
			"attributes":{
				"POSITION":1,
				"NORMAL":2,
				"TEXCOORD_0":3
			},
			"indices":0
		}]
	}],
	"accessors":[{
		"bufferView":0,
		"type":"SCALAR",
		"componentType":5123,
		"count":1920,
		"byteOffset":0,
		"min":[0],
		"max":[1707]
	},
	{
		"bufferView":1,
		"type":"VEC3",
		"componentType":5126,
		"count":1708,
		"byteOffset":0,
		"min":[-9.833412170410157,
		-3.5719778537750246,
		-9.896207809448243],
		"max":[13.166587829589844,
		3.743520736694336,
		13.103792190551758]
	},
	{
		"bufferView":1,
		"type":"VEC3",
		"componentType":5126,
		"count":1708,
		"byteOffset":12,
		"min":[-0.9836663007736206,
		-0.36698025465011599,
		-0.9778677821159363],
		"max":[0.9647608995437622,
		0.9965845942497253,
		0.9401703476905823]
	},
	{
		"bufferView":1,
		"type":"VEC2",
		"componentType":5126,
		"count":1708,
		"byteOffset":24,
		"min":[0.05802616477012634,
		0.04138374328613281],
		"max":[0.28094983100891116,
		0.26211977005004885]
	}],
	"bufferViews":[{
		"buffer":0,
		"byteOffset":0,
		"byteLength":3840,
		"target":34963
	},
	{
		"buffer":0,
		"byteOffset":3840,
		"byteLength":54656,
		"target":34962,
		"byteStride":32
	}],
	"buffers":[{
		"uri":"data:application/octet-stream;base64,",
		"byteLength":58496
	}]
}