{
	"asset":{
		"version":"2.0",
		"generator":"Maxon Cinema 4D 2023.2.2 (#200000219)"
	},
	"scenes":[{
		"nodes":[0]
	}],
	"nodes":[{
		"name":"Extrude.1",
		"mesh":0,
		"translation":[5.445598602294922,
		0.0,
		0.0],
		"rotation":[0.0,
		0.0,
		0.0,
		-1.0],
		"scale":[1.0,
		1.0,
		1.0]
	}],
	"meshes":[{
		"name":"Extrude.1",
		"primitives":[{
			"attributes":{
				"POSITION":1,
				"NORMAL":2,
				"TEXCOORD_0":3
			},
			"indices":0
		}]
	}],
	"accessors":[{
		"bufferView":0,
		"type":"SCALAR",
		"componentType":5123,
		"count":17136,
		"byteOffset":0,
		"min":[0],
		"max":[5793]
	},
	{
		"bufferView":1,
		"type":"VEC3",
		"componentType":5126,
		"count":5794,
		"byteOffset":0,
		"min":[-5.389318943023682,
		-0.3613044023513794,
		0.0],
		"max":[5.748734474182129,
		1.9925291538238526,
		0.3799999952316284]
	},
	{
		"bufferView":1,
		"type":"VEC3",
		"componentType":5126,
		"count":5794,
		"byteOffset":12,
		"min":[-1.0,
		-1.0,
		-1.0],
		"max":[1.0,
		1.0,
		1.0]
	},
	{
		"bufferView":1,
		"type":"VEC2",
		"componentType":5126,
		"count":5794,
		"byteOffset":24,
		"min":[0.0,
		0.0],
		"max":[1.0,
		1.0]
	}],
	"bufferViews":[{
		"buffer":0,
		"byteOffset":0,
		"byteLength":34272,
		"target":34963
	},
	{
		"buffer":0,
		"byteOffset":34272,
		"byteLength":185408,
		"target":34962,
		"byteStride":32
	}],
	"buffers":[{
		"uri":"data:application/octet-stream;base64,",
		"byteLength":219680
	}]
}