{
	"asset":{
		"version":"2.0",
		"generator":"Maxon Cinema 4D 2023.2.2 (#200000219)"
	},
	"scenes":[{
		"nodes":[0]
	}],
	"nodes":[{
		"name":"Extrude",
		"mesh":0,
		"translation":[5.937428951263428,
		0.0,
		0.0],
		"rotation":[0.0,
		0.0,
		0.0,
		-1.0],
		"scale":[1.0,
		1.0,
		1.0]
	}],
	"meshes":[{
		"name":"Extrude",
		"primitives":[{
			"attributes":{
				"POSITION":1,
				"NORMAL":2,
				"TEXCOORD_0":3
			},
			"indices":0
		}]
	}],
	"accessors":[{
		"bufferView":0,
		"type":"SCALAR",
		"componentType":5123,
		"count":20448,
		"byteOffset":0,
		"min":[0],
		"max":[6907]
	},
	{
		"bufferView":1,
		"type":"VEC3",
		"componentType":5126,
		"count":6908,
		"byteOffset":0,
		"min":[-4.861149311065674,
		-0.4782841205596924,
		0.0],
		"max":[5.009611129760742,
		1.9456499814987183,
		0.3799999952316284]
	},
	{
		"bufferView":1,
		"type":"VEC3",
		"componentType":5126,
		"count":6908,
		"byteOffset":12,
		"min":[-1.0,
		-1.0,
		-1.0],
		"max":[1.0,
		1.0,
		1.0]
	},
	{
		"bufferView":1,
		"type":"VEC2",
		"componentType":5126,
		"count":6908,
		"byteOffset":24,
		"min":[0.0,
		0.0],
		"max":[1.0,
		1.0]
	}],
	"bufferViews":[{
		"buffer":0,
		"byteOffset":0,
		"byteLength":40896,
		"target":34963
	},
	{
		"buffer":0,
		"byteOffset":40896,
		"byteLength":221056,
		"target":34962,
		"byteStride":32
	}],
	"buffers":[{
		"uri":"data:application/octet-stream;base64,",
		"byteLength":261952
	}]
}