{
	"asset":{
		"version":"2.0",
		"generator":"Autodesk 3ds Max 2017"
	},
	"scenes":[{
		"nodes":[0]
	}],
	"nodes":[{
		"name":"Tree_temp_climate_006",
		"mesh":0,
		"translation":[0.0,
		0.0,
		0.0],
		"rotation":[0.7071067690849304,
		0.0,
		0.0,
		-0.7071067690849304],
		"scale":[1.0,
		1.0,
		1.0]
	}],
	"meshes":[{
		"name":"Tree_temp_climate_006",
		"primitives":[{
			"attributes":{
				"POSITION":1,
				"NORMAL":2,
				"TEXCOORD_0":3
			},
			"indices":0
		}]
	}],
	"accessors":[{
		"bufferView":0,
		"type":"SCALAR",
		"componentType":5123,
		"count":726,
		"byteOffset":0,
		"min":[0],
		"max":[665]
	},
	{
		"bufferView":1,
		"type":"VEC3",
		"componentType":5126,
		"count":666,
		"byteOffset":0,
		"min":[-1.3428035974502564,
		-0.9933074116706848,
		0.0],
		"max":[1.1496201753616334,
		0.9041604399681091,
		6.481606483459473]
	},
	{
		"bufferView":1,
		"type":"VEC3",
		"componentType":5126,
		"count":666,
		"byteOffset":12,
		"min":[-0.9947945475578308,
		-0.9965521693229675,
		-0.989253580570221],
		"max":[0.9839227795600891,
		0.9975249767303467,
		0.9144010543823242]
	},
	{
		"bufferView":1,
		"type":"VEC2",
		"componentType":5126,
		"count":666,
		"byteOffset":24,
		"min":[0.027607642114162446,
		0.014953970909118653],
		"max":[1.5370124578475953,
		0.970449686050415]
	},
	{
		"bufferView":2,
		"type":"SCALAR",
		"componentType":5126,
		"count":2,
		"byteOffset":0,
		"min":[0.0],
		"max":[3.0]
	},
	{
		"bufferView":2,
		"type":"VEC4",
		"componentType":5126,
		"count":2,
		"byteOffset":8,
		"min":[0.7071067690849304,
		0.0,
		0.0,
		-0.7071067690849304],
		"max":[0.7071067690849304,
		0.0,
		0.0,
		-0.7071067690849304]
	}],
	"bufferViews":[{
		"buffer":0,
		"byteOffset":0,
		"byteLength":1452,
		"target":34963
	},
	{
		"buffer":0,
		"byteOffset":1452,
		"byteLength":21312,
		"target":34962,
		"byteStride":32
	},
	{
		"buffer":1,
		"byteOffset":0,
		"byteLength":40
	}],
	"buffers":[{
		"uri":"data:application/octet-stream;base64,",
		"byteLength":22764
	},
	{
		"uri":"data:application/octet-stream;base64,",
		"byteLength":40
	}],
	"animations":[{
		"samplers":[{
			"input":4,
			"interpolation":"LINEAR",
			"output":5
		}],
		"channels":[{
			"sampler":0,
			"target":{
				"node":0,
				"path":"rotation"
			}
		}]
	}]
}