{
	"asset":{
		"version":"2.0",
		"generator":"Maxon Cinema 4D 2023.2.2 (#200000219)"
	},
	"scenes":[{
		"nodes":[0]
	}],
	"nodes":[{
		"name":"Extrude.1",
		"translation":[2.0426559512040037e-15,
		-9.862950740683902e-15,
		-1.466955625983174e-13],
		"rotation":[0.0,
		0.0,
		0.0,
		-1.0],
		"scale":[0.05000000074505806,
		0.05000000074505806,
		0.05000000074505806],
		"children":[1]
	},
	{
		"mesh":0,
		"name":"Extrude.1"
	}],
	"meshes":[{
		"primitives":[{
			"attributes":{
				"POSITION":1,
				"NORMAL":2,
				"TEXCOORD_0":3
			},
			"indices":0,
			"material":0
		}],
		"name":"Extrude.1"
	}],
	"accessors":[{
		"bufferView":0,
		"type":"SCALAR",
		"componentType":5123,
		"count":5400,
		"byteOffset":0,
		"min":[0],
		"max":[2123]
	},
	{
		"bufferView":1,
		"type":"VEC3",
		"componentType":5126,
		"count":2124,
		"byteOffset":0,
		"min":[-2.643263101577759,
		-0.7013950347900391,
		-1.5287014245986939],
		"max":[3.926736831665039,
		0.8386049866676331,
		1.359584927558899]
	},
	{
		"bufferView":1,
		"type":"VEC3",
		"componentType":5126,
		"count":2124,
		"byteOffset":12,
		"min":[-1.0,
		-1.0,
		-0.9999203085899353],
		"max":[1.0,
		1.0,
		0.9999203085899353]
	},
	{
		"bufferView":1,
		"type":"VEC2",
		"componentType":5126,
		"count":2124,
		"byteOffset":24,
		"min":[0.0,
		0.0],
		"max":[1.0,
		1.0]
	}],
	"bufferViews":[{
		"buffer":0,
		"byteOffset":0,
		"byteLength":10800,
		"target":34963
	},
	{
		"buffer":0,
		"byteOffset":10800,
		"byteLength":67968,
		"target":34962,
		"byteStride":32
	}],
	"buffers":[{
		"uri":"data:application/octet-stream;base64,",
		"byteLength":78768
	}],
	"materials":[{
		"pbrMetallicRoughness":{
			"baseColorFactor":[0.8,
			0.8,
			0.8,
			1.0],
			"metallicFactor":0.0,
			"roughnessFactor":0.5
		},
		"emissiveFactor":[0.0,
		0.0,
		0.0],
		"alphaMode":"OPAQUE",
		"doubleSided":false,
		"name":"Mat"
	}]
}